<svg id="Calque_1" data-name="Calque 1" xmlns="http://www.w3.org/2000/svg" viewBox="0 0 50 11.83"><defs><style>.cls-1{fill:none;stroke:#000;}</style></defs><title>omf_logo_desktop_bis</title><line class="cls-1" y1="0.5" x2="50" y2="0.5"/><path d="M3.71,12.83a2.83,2.83,0,0,1-1.39-.34,2.51,2.51,0,0,1-1-.94A2.63,2.63,0,0,1,1,10.21a2.65,2.65,0,0,1,.35-1.34,2.41,2.41,0,0,1,1-.93,2.84,2.84,0,0,1,1.39-.35,2.77,2.77,0,0,1,1.38.34,2.5,2.5,0,0,1,1,.94,2.56,2.56,0,0,1,.35,1.34,2.57,2.57,0,0,1-.35,1.35,2.48,2.48,0,0,1-1,.93A2.77,2.77,0,0,1,3.71,12.83Zm0-.48a2.12,2.12,0,0,0,1.1-.28,2,2,0,0,0,.78-.76,2.28,2.28,0,0,0,.28-1.1,2.24,2.24,0,0,0-.28-1.09,2,2,0,0,0-.78-.76,2.12,2.12,0,0,0-1.1-.28,2.18,2.18,0,0,0-1.11.28,2,2,0,0,0-.78.76,2.13,2.13,0,0,0-.28,1.09,2.17,2.17,0,0,0,.28,1.1,2,2,0,0,0,.78.76A2.18,2.18,0,0,0,3.71,12.35Zm8.23-4.72v5.16H11.4V10.41H8.18v2.38H7.63V7.63h.55v2.3H11.4V7.63Zm9,0v5.16h-.53V8.66l-2,3.47H18.1l-2-3.44v4.1h-.53V7.63H16l2.24,3.83,2.22-3.83ZM24.35,11v1.78h-.53V11L21.75,7.63h.59l1.76,2.9,1.77-2.9h.55Zm5.38-2.9v2H32.4v.47H29.73v2.19h-.54V7.63h3.53v.48ZM36,12.83a2.81,2.81,0,0,1-1.39-.34,2.53,2.53,0,0,1-1-.94,2.81,2.81,0,0,1,0-2.68,2.44,2.44,0,0,1,1-.93A2.81,2.81,0,0,1,36,7.59a2.7,2.7,0,0,1,1.37.34,2.46,2.46,0,0,1,1,.94,2.76,2.76,0,0,1,0,2.69,2.44,2.44,0,0,1-1,.93A2.7,2.7,0,0,1,36,12.83Zm0-.48a2.17,2.17,0,0,0,1.1-.28,2,2,0,0,0,.78-.76,2.28,2.28,0,0,0,.28-1.1,2.24,2.24,0,0,0-.28-1.09,2,2,0,0,0-.78-.76,2.32,2.32,0,0,0-2.21,0,2.06,2.06,0,0,0-.79.76,2.24,2.24,0,0,0-.28,1.09,2.28,2.28,0,0,0,.28,1.1,2.13,2.13,0,0,0,.79.76A2.18,2.18,0,0,0,36,12.35Zm6.18.48a2.84,2.84,0,0,1-1.4-.34,2.58,2.58,0,0,1-1-.94,2.81,2.81,0,0,1,0-2.68,2.48,2.48,0,0,1,1-.93,2.85,2.85,0,0,1,1.4-.35,2.73,2.73,0,0,1,1.37.34,2.44,2.44,0,0,1,1,.94,2.69,2.69,0,0,1,0,2.69,2.41,2.41,0,0,1-1,.93A2.73,2.73,0,0,1,42.22,12.83Zm0-.48a2.17,2.17,0,0,0,1.1-.28,1.94,1.94,0,0,0,.77-.76,2.17,2.17,0,0,0,.28-1.1,2.13,2.13,0,0,0-.28-1.09,1.88,1.88,0,0,0-.77-.76,2.17,2.17,0,0,0-1.1-.28,2.24,2.24,0,0,0-1.12.28,2,2,0,0,0-.78.76A2.24,2.24,0,0,0,40,10.21a2.28,2.28,0,0,0,.28,1.1,2,2,0,0,0,.78.76A2.24,2.24,0,0,0,42.22,12.35Zm3.92-4.72h2.1A3,3,0,0,1,49.68,8a2.31,2.31,0,0,1,1,.91A2.56,2.56,0,0,1,51,10.21a2.6,2.6,0,0,1-.35,1.34,2.37,2.37,0,0,1-1,.91,3.06,3.06,0,0,1-1.44.33h-2.1Zm2.07,4.69a2.45,2.45,0,0,0,1.18-.27,2,2,0,0,0,.79-.74,2.12,2.12,0,0,0,.28-1.1,2.08,2.08,0,0,0-.28-1.09,1.83,1.83,0,0,0-.79-.74,2.45,2.45,0,0,0-1.18-.27H46.68v4.21Z" transform="translate(-1 -1)"/></svg>