<svg id="Calque_1" data-name="Calque 1" xmlns="http://www.w3.org/2000/svg" viewBox="0 0 50 15.26"><title>omf_logo_mobile</title><path d="M9.23,16A9,9,0,0,1,5,15a7.47,7.47,0,0,1-2.94-2.71A7.43,7.43,0,0,1,1,8.32,7.32,7.32,0,0,1,5,1.67a8.91,8.91,0,0,1,4.23-1,8.91,8.91,0,0,1,4.23,1A7.18,7.18,0,0,1,16.4,4.4a7.32,7.32,0,0,1,1.07,3.92,7.44,7.44,0,0,1-1.07,3.94A7.34,7.34,0,0,1,13.46,15,9,9,0,0,1,9.23,16Zm0-4a3.17,3.17,0,0,0,1.65-.43,3.27,3.27,0,0,0,1.19-1.28,4.1,4.1,0,0,0,.44-1.93,4,4,0,0,0-.44-1.92,3.05,3.05,0,0,0-1.19-1.27,3,3,0,0,0-1.65-.46A3.14,3.14,0,0,0,6.4,6.4,4,4,0,0,0,6,8.32a4.1,4.1,0,0,0,.44,1.93,3.3,3.3,0,0,0,1.17,1.28A3.24,3.24,0,0,0,9.23,12Zm23.05,3.65,0-6.65L29.07,14.3H26.9L23.73,9.19v6.42H19.25V1H23.3L28.05,8.8,32.68,1h4l0,14.59ZM44.06,4.73v2.5h6.09v3.71H44.06v4.67H39.14V1H51V4.73Z" transform="translate(-1 -0.69)"/></svg>